<svg width="96" height="172" viewBox="0 0 96 172" fill="none" xmlns="http://www.w3.org/2000/svg">
<rect y="59" width="96" height="96" rx="48" fill="#D2FF72"/>
<path d="M49.9655 141.896C43.1388 141.896 37.0802 140.787 31.7895 138.568C26.5842 136.349 22.4455 133.277 19.3735 129.352C16.3015 125.427 14.5522 120.989 14.1255 116.04H41.3895C41.7308 118.173 42.6268 119.752 44.0775 120.776C45.6135 121.8 47.5335 122.312 49.8375 122.312C51.2882 122.312 52.4402 122.013 53.2935 121.416C54.1468 120.733 54.5735 119.923 54.5735 118.984C54.5735 117.363 53.6775 116.211 51.8855 115.528C50.0935 114.845 47.0642 114.077 42.7975 113.224C37.5922 112.2 33.2828 111.091 29.8695 109.896C26.5415 108.701 23.5975 106.653 21.0375 103.752C18.5628 100.851 17.3255 96.84 17.3255 91.72C17.3255 87.2827 18.4775 83.272 20.7815 79.688C23.1708 76.0187 26.6695 73.16 31.2775 71.112C35.8855 68.9787 41.4748 67.912 48.0455 67.912C57.7735 67.912 65.3682 70.3013 70.8295 75.08C76.3762 79.8587 79.7042 86.088 80.8135 93.768H55.5975C55.1708 91.8053 54.2748 90.312 52.9095 89.288C51.5442 88.1787 49.7095 87.624 47.4055 87.624C45.9548 87.624 44.8455 87.9227 44.0775 88.52C43.3095 89.032 42.9255 89.8427 42.9255 90.952C42.9255 92.4027 43.8215 93.512 45.6135 94.28C47.4055 94.9627 50.2642 95.688 54.1895 96.456C59.3948 97.48 63.7895 98.632 67.3735 99.912C70.9575 101.192 74.0722 103.411 76.7175 106.568C79.3628 109.64 80.6855 113.907 80.6855 119.368C80.6855 123.635 79.4482 127.475 76.9735 130.888C74.4988 134.301 70.9148 136.989 66.2215 138.952C61.6135 140.915 56.1948 141.896 49.9655 141.896Z" fill="#0044FF"/>
</svg>
